#tb 0: 1/1000
#tb 1: 1/22050
0,          0,          0,        0,      734, 0x5a042c2c
1,          0,          0,      512,     1024, 0x00000000
1,        512,        512,      512,     1024, 0x00000000
1,       1024,       1024,      512,     1024, 0xd89a448e
1,       1536,       1536,      512,     1024, 0x695b369c
1,       2048,       2048,      512,     1024, 0xc8ba5707
0,        111,        111,        0,      763, 0xb5893f2f
1,       2560,       2560,      512,     1024, 0xdf241fc6
1,       3072,       3072,      512,     1024, 0x61cf4166
1,       3584,       3584,      512,     1024, 0x97cbc386
1,       4096,       4096,      512,     1024, 0x44899d04
1,       4608,       4608,      512,     1024, 0xa7cbaa62
0,        222,        222,        0,     3023, 0x0f3907d3
1,       5120,       5120,      512,     1024, 0xa7aea60c
1,       5632,       5632,      512,     1024, 0xd7b18a89
1,       6144,       6144,      512,     1024, 0x268e81f6
1,       6656,       6656,      512,     1024, 0x9cf83a2f
1,       7168,       7168,      512,     1024, 0x5559b508
0,        333,        333,        0,     4800, 0x22e6e18a
1,       7680,       7680,      512,     1024, 0xe1b9e71c
1,       8192,       8192,      512,     1024, 0xdcee733e
1,       8704,       8704,      512,     1024, 0xe5918f60
1,       9216,       9216,      512,     1024, 0x29dbd209
1,       9728,       9728,      512,     1024, 0x9bcbcf16
0,        444,        444,        0,     6417, 0x427adde5
1,      10240,      10240,      512,     1024, 0x86f5f458
1,      10752,      10752,      512,     1024, 0xabcbda86
1,      11264,      11264,      512,     1024, 0xc51f77b9
1,      11776,      11776,      512,     1024, 0xf6b3a504
0,        555,        555,        0,     6776, 0x7a74c6ad
1,      12288,      12288,      512,     1024, 0x1af3e40e
1,      12800,      12800,      512,     1024, 0x3866b03b
1,      13312,      13312,      512,     1024, 0xbc005403
1,      13824,      13824,      512,     1024, 0xe9dfcc51
1,      14336,      14336,      512,     1024, 0x83c837cb
0,        666,        666,        0,     6808, 0x1f6eb7c3
1,      14848,      14848,      512,     1024, 0xfa649580
1,      15360,      15360,      512,     1024, 0x519452ea
1,      15872,      15872,      512,     1024, 0xd4978774
1,      16384,      16384,      512,     1024, 0xe2a3b1cd
1,      16896,      16896,      512,     1024, 0x9a9472ad
0,        777,        777,        0,     6726, 0x452087e6
1,      17408,      17408,      512,     1024, 0xa12d4060
1,      17920,      17920,      512,     1024, 0x31fb0646
1,      18432,      18432,      512,     1024, 0xfc44343f
1,      18944,      18944,      512,     1024, 0x0847751a
1,      19456,      19456,      512,     1024, 0x227968a2
0,        888,        888,        0,     6829, 0xee82b109
1,      19968,      19968,      512,     1024, 0x7cce9f1c
1,      20480,      20480,      512,     1024, 0xb8356713
1,      20992,      20992,      512,     1024, 0xb29f6e6f
1,      21504,      21504,      512,     1024, 0x9e1430ab
1,      22016,      22016,      512,     1024, 0x26d85423
0,        999,        999,        0,     7055, 0xf41f1108
1,      22528,      22528,      512,     1024, 0x6496547d
1,      23040,      23040,      512,     1024, 0x316b1a86
1,      23552,      23552,      512,     1024, 0x3cd83afc
1,      24064,      24064,      512,     1024, 0x993ff633
0,       1111,       1111,        0,     6977, 0xf8fe1ede
1,      24576,      24576,      512,     1024, 0x0708d1a2
1,      25088,      25088,      512,     1024, 0xd7230db9
1,      25600,      25600,      512,     1024, 0xbb0779ca
1,      26112,      26112,      512,     1024, 0xc6094e1b
1,      26624,      26624,      512,     1024, 0x15a8b039
0,       1222,       1222,        0,     6942, 0x9ad105c6
1,      27136,      27136,      512,     1024, 0xd6dbe88c
1,      27648,      27648,      512,     1024, 0x7e8d1140
1,      28160,      28160,      512,     1024, 0xef88e525
1,      28672,      28672,      512,     1024, 0x44e21149
1,      29184,      29184,      512,     1024, 0x65b0f5f4
0,       1333,       1333,        0,     6926, 0xe239dad6
1,      29696,      29696,      512,     1024, 0xb955f687
1,      30208,      30208,      512,     1024, 0xc85fba9c
1,      30720,      30720,      512,     1024, 0xf59655ad
1,      31232,      31232,      512,     1024, 0x6de80bf1
1,      31744,      31744,      512,     1024, 0x2dcf6e41
0,       1444,       1444,        0,     6966, 0x81dcfab1
1,      32256,      32256,      512,     1024, 0xd0ddcf8a
1,      32768,      32768,      512,     1024, 0x00135c2d
1,      33280,      33280,      512,     1024, 0x697f8efd
1,      33792,      33792,      512,     1024, 0x7a9bada5
0,       1555,       1555,        0,     6896, 0x31e6cc02
1,      34304,      34304,      512,     1024, 0x0d22783c
1,      34816,      34816,      512,     1024, 0x7726d07d
1,      35328,      35328,      512,     1024, 0xa2f14f67
1,      35840,      35840,      512,     1024, 0x7f51060d
1,      36352,      36352,      512,     1024, 0xc4ec6aea
0,       1666,       1666,        0,     6889, 0x1cc1006e
1,      36864,      36864,      512,     1024, 0x9bb37ca4
1,      37376,      37376,      512,     1024, 0x9b085577
1,      37888,      37888,      512,     1024, 0x8812f8af
1,      38400,      38400,      512,     1024, 0x788f5221
1,      38912,      38912,      512,     1024, 0x3a2ce642
0,       1777,       1777,        0,     6933, 0xc303f87f
1,      39424,      39424,      512,     1024, 0x72415692
1,      39936,      39936,      512,     1024, 0xe3dcc105
1,      40448,      40448,      512,     1024, 0xb26c0599
1,      40960,      40960,      512,     1024, 0x5c9e55eb
1,      41472,      41472,      512,     1024, 0x8fe88707
0,       1888,       1888,        0,     7034, 0xb4970a20
1,      41984,      41984,      512,     1024, 0xc5d7beb6
1,      42496,      42496,      512,     1024, 0xe1d3a3b4
1,      43008,      43008,      512,     1024, 0x012da0c6
1,      43520,      43520,      512,     1024, 0x8d010922
1,      44032,      44032,      512,     1024, 0x3366eb0d
0,       1999,       1999,        0,     6961, 0xf064095d
1,      44544,      44544,      512,     1024, 0xc9381a27
1,      45056,      45056,      512,     1024, 0x0774f685
1,      45568,      45568,      512,     1024, 0xc5cae0a5
1,      46080,      46080,      512,     1024, 0xa6f4737c
0,       2111,       2111,        0,     7089, 0x5ba350f9
1,      46592,      46592,      512,     1024, 0x8fb6d0d1
1,      47104,      47104,      512,     1024, 0x05f579c2
1,      47616,      47616,      512,     1024, 0x56905d99
1,      48128,      48128,      512,     1024, 0x002ee18d
1,      48640,      48640,      512,     1024, 0xeb37ef51
0,       2222,       2222,        0,     7078, 0xa83f3e88
1,      49152,      49152,      512,     1024, 0x38025635
1,      49664,      49664,      512,     1024, 0x4fe643c8
1,      50176,      50176,      512,     1024, 0x11d66ab1
1,      50688,      50688,      512,     1024, 0xcc3051e9
1,      51200,      51200,      512,     1024, 0xcd93e854
0,       2333,       2333,        0,     7147, 0xcda66cfc
1,      51712,      51712,      512,     1024, 0x38f1196d
1,      52224,      52224,      512,     1024, 0x657a15fc
1,      52736,      52736,      512,     1024, 0x669ce2a9
1,      53248,      53248,      512,     1024, 0x95862dda
1,      53760,      53760,      512,     1024, 0x1726a7b2
0,       2444,       2444,        0,     7173, 0xb7455859
1,      54272,      54272,      512,     1024, 0xd6ece2a1
1,      54784,      54784,      512,     1024, 0x33ab9553
1,      55296,      55296,      512,     1024, 0xd50c73a6
1,      55808,      55808,      512,     1024, 0xfe25b63a
1,      56320,      56320,      512,     1024, 0x7e2959e3
0,       2555,       2555,        0,     7213, 0x97b89994
1,      56832,      56832,      512,     1024, 0xa4c07b34
1,      57344,      57344,      512,     1024, 0xd6d8f15c
1,      57856,      57856,      512,     1024, 0x1eccddd7
1,      58368,      58368,      512,     1024, 0x2b69f9cb
0,       2666,       2666,        0,     7170, 0xca8b2948
1,      58880,      58880,      512,     1024, 0x667b775f
1,      59392,      59392,      512,     1024, 0xad3b84e9
1,      59904,      59904,      512,     1024, 0x4f29fc67
1,      60416,      60416,      512,     1024, 0x8d611ab7
1,      60928,      60928,      512,     1024, 0x278966ea
0,       2777,       2777,        0,     7174, 0xc7cc6bbb
1,      61440,      61440,      512,     1024, 0xaf33812b
1,      61952,      61952,      512,     1024, 0xa55f4265
1,      62464,      62464,      512,     1024, 0x023cb51c
1,      62976,      62976,      512,     1024, 0x1d1f1005
1,      63488,      63488,      512,     1024, 0x874cccf7
0,       2888,       2888,        0,     7235, 0xc2e68d2b
1,      64000,      64000,      512,     1024, 0xda705428
1,      64512,      64512,      512,     1024, 0x48d9b440
1,      65024,      65024,      512,     1024, 0xa14e0712
1,      65536,      65536,      512,     1024, 0x7efbad1f
1,      66048,      66048,      512,     1024, 0xdb82c17f
0,       3000,       3000,        0,     7261, 0x8204a423
1,      66560,      66560,      512,     1024, 0xcbe87613
1,      67072,      67072,      512,     1024, 0x3a63df1d
1,      67584,      67584,      512,     1024, 0xd5636bba
1,      68096,      68096,      512,     1024, 0x9397af23
0,       3111,       3111,        0,     7353, 0xacc7e7c0
1,      68608,      68608,      512,     1024, 0x32a07c98
1,      69120,      69120,      512,     1024, 0x202ca667
1,      69632,      69632,      512,     1024, 0xdf969011
1,      70144,      70144,      512,     1024, 0xc434d238
1,      70656,      70656,      512,     1024, 0xe9ad7562
0,       3222,       3222,        0,     7065, 0x45035c5c
1,      71168,      71168,      512,     1024, 0xb51b6b50
1,      71680,      71680,      512,     1024, 0xe70aecd3
1,      72192,      72192,      512,     1024, 0x03c816b2
1,      72704,      72704,      512,     1024, 0x869fdf25
1,      73216,      73216,      512,     1024, 0xd40a0a62
0,       3333,       3333,        0,     7269, 0x72edbb76
1,      73728,      73728,      512,     1024, 0x5af7dd35
1,      74240,      74240,      512,     1024, 0x891ffc72
1,      74752,      74752,      512,     1024, 0x1ff68a08
1,      75264,      75264,      512,     1024, 0x5a7517a9
1,      75776,      75776,      512,     1024, 0x0f959f74
0,       3444,       3444,        0,     7220, 0xb926772f
1,      76288,      76288,      512,     1024, 0xe92a12a2
1,      76800,      76800,      512,     1024, 0x38000e55
1,      77312,      77312,      512,     1024, 0x39fbdd70
1,      77824,      77824,      512,     1024, 0xca3d9184
1,      78336,      78336,      512,     1024, 0x66c8995b
0,       3555,       3555,        0,     7326, 0x0a66c632
1,      78848,      78848,      512,     1024, 0xac25acea
1,      79360,      79360,      512,     1024, 0x3cd1046c
1,      79872,      79872,      512,     1024, 0x6a1df31c
1,      80384,      80384,      512,     1024, 0x21ca10a1
0,       3666,       3666,        0,     7225, 0xe39076ab
1,      80896,      80896,      512,     1024, 0x1aeccedc
1,      81408,      81408,      512,     1024, 0xddea1335
1,      81920,      81920,      512,     1024, 0x19f5ca9f
1,      82432,      82432,      512,     1024, 0x88e95e43
1,      82944,      82944,      512,     1024, 0x726284fe
0,       3777,       3777,        0,     7265, 0xe0209036
1,      83456,      83456,      512,     1024, 0x6b85b40e
1,      83968,      83968,      512,     1024, 0x111fee2a
1,      84480,      84480,      512,     1024, 0x3656b588
1,      84992,      84992,      512,     1024, 0xa5a2b552
1,      85504,      85504,      512,     1024, 0x38fb2467
0,       3888,       3888,        0,     7337, 0x7a5dc093
1,      86016,      86016,      512,     1024, 0xaa919ccc
1,      86528,      86528,      512,     1024, 0x15993dbc
1,      87040,      87040,      512,     1024, 0xbe01a7b9
1,      87552,      87552,      512,     1024, 0xefe93c09
1,      88064,      88064,      512,     1024, 0x1bb566e5
0,       4000,       4000,        0,     7246, 0x519a7a3c
1,      88576,      88576,      512,     1024, 0x15ce6237
1,      89088,      89088,      512,     1024, 0xa8552e66
1,      89600,      89600,      512,     1024, 0x9d80187e
1,      90112,      90112,      512,     1024, 0x5df3fc30
1,      90624,      90624,      512,     1024, 0x1a312aa5
0,       4111,       4111,        0,     7266, 0x352c8078
1,      91136,      91136,      512,     1024, 0x6bb8e302
1,      91648,      91648,      512,     1024, 0xbd9684bb
1,      92160,      92160,      512,     1024, 0x78b0b166
1,      92672,      92672,      512,     1024, 0xd9af5eae
0,       4222,       4222,        0,     7323, 0xcaf69d7c
1,      93184,      93184,      512,     1024, 0xdb90fe82
1,      93696,      93696,      512,     1024, 0x327614e9
1,      94208,      94208,      512,     1024, 0x1f19b7fe
1,      94720,      94720,      512,     1024, 0x46c53f96
1,      95232,      95232,      512,     1024, 0x921b2189
0,       4333,       4333,        0,     7309, 0x98c1e6f7
1,      95744,      95744,      512,     1024, 0xa8fbc85a
1,      96256,      96256,      512,     1024, 0xabfdaaae
1,      96768,      96768,      512,     1024, 0x6acc7387
1,      97280,      97280,      512,     1024, 0x0d9c27b5
1,      97792,      97792,      512,     1024, 0xba4dd809
0,       4444,       4444,        0,     7121, 0x913d5bd6
1,      98304,      98304,      512,     1024, 0x2a2ad521
1,      98816,      98816,      512,     1024, 0x892de38a
1,      99328,      99328,      512,     1024, 0xdc97a2eb
1,      99840,      99840,      512,     1024, 0x4f614ca4
1,     100352,     100352,      512,     1024, 0x9c8a77ea
0,       4555,       4555,      111,     7088, 0x56302362
1,     100864,     100864,      512,     1024, 0x2d30e646
1,     101376,     101376,      512,     1024, 0x74e800a7
1,     101888,     101888,      512,     1024, 0x1e01fb02
1,     102400,     102400,      512,     1024, 0x4ed2c1d8
0,       4666,       4666,      111,     7104, 0xc0d14f78
1,     102912,     102912,      512,     1024, 0xf2fdbe63
1,     103424,     103424,      512,     1024, 0x8d6f63a1
1,     103936,     103936,      512,     1024, 0xded468d9
1,     104448,     104448,      512,     1024, 0xccad839e
1,     104960,     104960,      512,     1024, 0xdde7c082
0,       4777,       4777,      111,     7169, 0xd03c825b
1,     105472,     105472,      512,     1024, 0x548613c5
1,     105984,     105984,      512,     1024, 0x383909bd
1,     106496,     106496,      512,     1024, 0xfd37627b
1,     107008,     107008,      512,     1024, 0x6d95a481
1,     107520,     107520,      512,     1024, 0x56aa87fa
0,       4888,       4888,      111,     7038, 0x1ecc201d
1,     108032,     108032,      512,     1024, 0x7b67258c
1,     108544,     108544,      512,     1024, 0x7dd99a92
1,     109056,     109056,      512,     1024, 0x4a66d102
1,     109568,     109568,      512,     1024, 0x7b3fce51
1,     110080,     110080,      512,     1024, 0xbbd968aa
0,       5000,       5000,      111,     7015, 0x83c94454
1,     110592,     110592,      512,     1024, 0x8283ec36
1,     111104,     111104,      512,     1024, 0x3c96493d
1,     111616,     111616,      512,     1024, 0xfa4f8cf8
1,     112128,     112128,      512,     1024, 0xe2cf872d
1,     112640,     112640,      512,     1024, 0x0a9e7aa6
0,       5111,       5111,      111,     6983, 0x9e51f54d
1,     113152,     113152,      512,     1024, 0x6e7a0550
1,     113664,     113664,      512,     1024, 0x3acfea2f
1,     114176,     114176,      512,     1024, 0x7111d0fa
1,     114688,     114688,      512,     1024, 0xe9a1eca9
0,       5222,       5222,      111,     7088, 0x70d33de1
1,     115200,     115200,      512,     1024, 0x24da6c46
1,     115712,     115712,      512,     1024, 0x117cff37
1,     116224,     116224,      512,     1024, 0x0f27cab6
1,     116736,     116736,      512,     1024, 0x69b6b4e6
1,     117248,     117248,      512,     1024, 0x1e6cc841
0,       5333,       5333,      111,     7096, 0x4d0f81b5
1,     117760,     117760,      512,     1024, 0xb01e2365
1,     118272,     118272,      512,     1024, 0x14e200d3
1,     118784,     118784,      512,     1024, 0xd1184c98
1,     119296,     119296,      512,     1024, 0xef9140e9
1,     119808,     119808,      512,     1024, 0x4cbb645e
0,       5444,       5444,      111,     7106, 0xd1a83ddc
1,     120320,     120320,      512,     1024, 0xe7fe2f06
1,     120832,     120832,      512,     1024, 0xf8c45028
1,     121344,     121344,      512,     1024, 0x561358f4
1,     121856,     121856,      512,     1024, 0xd0129b77
1,     122368,     122368,      512,     1024, 0xcc636e88
0,       5555,       5555,      111,     7219, 0x20f47fe4
1,     122880,     122880,      512,     1024, 0xe9406321
1,     123392,     123392,      512,     1024, 0x9f16a041
1,     123904,     123904,      512,     1024, 0x468bf409
1,     124416,     124416,      512,     1024, 0x3df70f7b
1,     124928,     124928,      512,     1024, 0xa880b11b
0,       5666,       5666,      111,     7184, 0x45dc6a0e
1,     125440,     125440,      512,     1024, 0x3286c489
1,     125952,     125952,      512,     1024, 0x39fe9ebc
1,     126464,     126464,      512,     1024, 0xc533d83b
1,     126976,     126976,      512,     1024, 0x153b195d
0,       5777,       5777,      111,     7222, 0x488c6499
1,     127488,     127488,      512,     1024, 0xd84786a1
1,     128000,     128000,      512,     1024, 0xdc295aaa
1,     128512,     128512,      512,     1024, 0xfb764d8c
1,     129024,     129024,      512,     1024, 0xeebc9db9
1,     129536,     129536,      512,     1024, 0x7ba9403e
0,       5888,       5888,      111,     7254, 0xbd097ba7
1,     130048,     130048,      512,     1024, 0x4e5571ec
1,     130560,     130560,      512,     1024, 0xd965fad4
1,     131072,     131072,      512,     1024, 0x87e259f2
1,     131584,     131584,      512,     1024, 0xae7e533b
1,     132096,     132096,      512,     1024, 0x313cf4d6
0,       6000,       6000,      111,     7189, 0x46e06d43
1,     132608,     132608,      512,     1024, 0xe1844c90
1,     133120,     133120,      512,     1024, 0xbb057b44
1,     133632,     133632,      512,     1024, 0xa5099687
1,     134144,     134144,      512,     1024, 0xbff10707
1,     134656,     134656,      512,     1024, 0x37c4ffc0
0,       6111,       6111,      111,     7283, 0x19dd7319
1,     135168,     135168,      512,     1024, 0xf9fb6caa
1,     135680,     135680,      512,     1024, 0x3b6a3a1f
1,     136192,     136192,      512,     1024, 0x83431edb
1,     136704,     136704,      512,     1024, 0x1eb713cf
0,       6222,       6222,      111,     7161, 0x23171d02
1,     137216,     137216,      512,     1024, 0xd7b07a6d
1,     137728,     137728,      512,     1024, 0x81ae3391
1,     138240,     138240,      512,     1024, 0xf150130a
1,     138752,     138752,      512,     1024, 0x09678eaa
1,     139264,     139264,      512,     1024, 0xb94e06f1
0,       6333,       6333,      111,     6976, 0xcc610c26
1,     139776,     139776,      512,     1024, 0x67b1dbc9
1,     140288,     140288,      512,     1024, 0xd6edc235
1,     140800,     140800,      512,     1024, 0x34e4c499
1,     141312,     141312,      512,     1024, 0xeefd89c0
1,     141824,     141824,      512,     1024, 0x38afdaf1
0,       6444,       6444,      111,     7056, 0x6cd917b0
1,     142336,     142336,      512,     1024, 0x29a60d76
1,     142848,     142848,      512,     1024, 0xe28a4372
1,     143360,     143360,      512,     1024, 0x7089454d
1,     143872,     143872,      512,     1024, 0x0c01bb7b
1,     144384,     144384,      512,     1024, 0xbd776a72
0,       6555,       6555,      111,     6736, 0x02b78951
1,     144896,     144896,      512,     1024, 0x86776fd0
1,     145408,     145408,      512,     1024, 0xb37c88f7
1,     145920,     145920,      512,     1024, 0x5f90aaf8
1,     146432,     146432,      512,     1024, 0x203d4222
1,     146944,     146944,      512,     1024, 0x382692a6
0,       6666,       6666,      111,     6540, 0x767e0854
1,     147456,     147456,      512,     1024, 0xf37c95fd
1,     147968,     147968,      512,     1024, 0x6c0b8877
1,     148480,     148480,      512,     1024, 0x2e54a8b6
1,     148992,     148992,      512,     1024, 0x7f266488
0,       6777,       6777,      111,     6170, 0xc84962fb
1,     149504,     149504,      512,     1024, 0xfbf20f9a
1,     150016,     150016,      512,     1024, 0xf2985cc0
1,     150528,     150528,      512,     1024, 0xc7075340
1,     151040,     151040,      512,     1024, 0xe4585695
1,     151552,     151552,      512,     1024, 0xbdffa380
0,       6888,       6888,      111,     6169, 0x27e06c03
1,     152064,     152064,      512,     1024, 0x2422a8a9
1,     152576,     152576,      512,     1024, 0x59cbd75f
1,     153088,     153088,      512,     1024, 0x04ad1a8c
1,     153600,     153600,      512,     1024, 0x33c09191
1,     154112,     154112,      512,     1024, 0x55efa6fd
0,       7000,       7000,      111,     5864, 0xd14db83f
1,     154624,     154624,      512,     1024, 0xf73d0e5d
1,     155136,     155136,      512,     1024, 0x6141ebae
1,     155648,     155648,      512,     1024, 0x7db17a68
1,     156160,     156160,      512,     1024, 0xa6c690b6
1,     156672,     156672,      512,     1024, 0xa6fd6725
0,       7111,       7111,      111,     5375, 0x4a21055d
1,     157184,     157184,      512,     1024, 0x50a90b9b
1,     157696,     157696,      512,     1024, 0xef990dc8
1,     158208,     158208,      512,     1024, 0x75adf6b5
1,     158720,     158720,      512,     1024, 0x61eac43e
1,     159232,     159232,      512,     1024, 0x67797a19
0,       7222,       7222,      111,     5206, 0x95ead3cb
1,     159744,     159744,      512,     1024, 0xf325277a
1,     160256,     160256,      512,     1024, 0x18bf254a
1,     160768,     160768,      512,     1024, 0x2ce6bee3
1,     161280,     161280,      512,     1024, 0x8d320860
0,       7333,       7333,      111,     5220, 0xcfdcc37e
1,     161792,     161792,      512,     1024, 0xc979b6e8
1,     162304,     162304,      512,     1024, 0xdb644b41
1,     162816,     162816,      512,     1024, 0xe1b368ba
1,     163328,     163328,      512,     1024, 0xacc53d15
1,     163840,     163840,      512,     1024, 0x42ea8c18
0,       7444,       7444,      111,     4946, 0x2d864a77
1,     164352,     164352,      512,     1024, 0xe52c99a4
1,     164864,     164864,      512,     1024, 0xd7db54a6
1,     165376,     165376,      512,     1024, 0x7f27a7e3
1,     165888,     165888,      512,     1024, 0xf7ffeaa9
1,     166400,     166400,      512,     1024, 0x792b6088
0,       7555,       7555,      111,     4390, 0x2ab9f462
1,     166912,     166912,      512,     1024, 0x61d99724
1,     167424,     167424,      512,     1024, 0x5213720e
1,     167936,     167936,      512,     1024, 0xac09dd30
1,     168448,     168448,      512,     1024, 0x960bf6bb
1,     168960,     168960,      512,     1024, 0xc90168e1
0,       7666,       7666,      111,     4051, 0x1d09592e
1,     169472,     169472,      512,     1024, 0x43b45768
1,     169984,     169984,      512,     1024, 0x935d60a1
1,     170496,     170496,      512,     1024, 0x9a342ef2
1,     171008,     171008,      512,     1024, 0xc894709f
0,       7777,       7777,      111,     3680, 0x39bd6a12
1,     171520,     171520,      512,     1024, 0x59b43b07
1,     172032,     172032,      512,     1024, 0x36a1a98d
1,     172544,     172544,      512,     1024, 0x9e1a121c
1,     173056,     173056,      512,     1024, 0x02208b78
1,     173568,     173568,      512,     1024, 0xd1d7b274
0,       7888,       7888,      111,     2910, 0x6337ece9
1,     174080,     174080,      512,     1024, 0xdacd5096
1,     174592,     174592,      512,     1024, 0x51b71ead
1,     175104,     175104,      512,     1024, 0xd009a7ca
1,     175616,     175616,      512,     1024, 0xb6d5a938
1,     176128,     176128,      512,     1024, 0xf3d45e47
0,       8000,       8000,      111,     2153, 0xf4e3bc17
1,     176640,     176640,      512,     1024, 0xea8e04fc
1,     177152,     177152,      512,     1024, 0x0b928bd8
1,     177664,     177664,      512,     1024, 0x0f02caec
1,     178176,     178176,      512,     1024, 0xe2b137a8
1,     178688,     178688,      512,     1024, 0xd5f94892
